<svg width="54" height="54" viewBox="0 0 54 54" fill="none" xmlns="http://www.w3.org/2000/svg">
    <path
        d="M34.043 11.5686C37.9115 13.2986 41.0698 16.3046 42.9901 20.0845C44.9105 23.8644 45.4766 28.1892 44.594 32.3366C43.7114 36.4839 41.4334 40.2026 38.1407 42.8715C34.8479 45.5403 30.7398 46.9976 26.5026 47C22.8782 46.9998 19.3336 45.9345 16.3089 43.9362C13.2843 41.9378 10.9126 39.0945 9.48841 35.7592C8.06421 32.4239 7.65018 28.7435 8.29771 25.1748C8.94523 21.6061 10.6258 18.3063 13.1308 15.685C14.857 18.0972 17.1348 20.0611 19.7741 21.4129C19.8203 18.4471 20.5199 15.528 21.8229 12.8638C23.1259 10.1997 25.0002 7.85601 27.3122 6C29.0768 8.36836 31.3845 10.2775 34.0407 11.5663L34.043 11.5686Z"
        stroke="#1B1B1B" stroke-width="2" stroke-linecap="round" stroke-linejoin="round" />
    <path
        d="M27.5022 41C29.6589 40.9992 31.7347 40.1751 33.3091 38.6948C34.8834 37.2144 35.8387 35.1884 35.9814 33.0272C36.124 30.8659 35.4434 28.731 34.0774 27.0549C32.7113 25.3787 30.762 24.2867 28.6243 24C26.2839 26.1032 24.7417 28.9562 24.2605 32.0731C22.5142 31.6441 20.8704 30.8701 19.4251 29.7964C19.0054 31.0788 18.8944 32.4429 19.1013 33.7767C19.3082 35.1105 19.8271 36.376 20.6154 37.4694C21.4036 38.5627 22.4388 39.4528 23.6359 40.0666C24.8331 40.6803 26.1581 41.0002 27.5022 41Z"
        stroke="#1B1B1B" stroke-width="2" stroke-linecap="round" stroke-linejoin="round" />
</svg>