<svg width="60" height="41" viewBox="0 0 60 41" fill="none" xmlns="http://www.w3.org/2000/svg">
<path d="M20 40.5H26.0723L24.3045 38.7322C23.8357 38.2634 23.1998 38 22.5368 38H20C10.335 38 2.5 30.165 2.5 20.5C2.5 10.835 10.335 3.00001 20 3H40C49.665 3 57.5 10.835 57.5 20.5C57.5 30.165 49.665 38 40 38H32.5184C31.5238 38 30.57 37.6049 29.8667 36.9017L27.7957 34.8306C26.6236 33.6585 25.0338 33 23.3762 33H20C13.0964 33 7.5 27.4036 7.5 20.5C7.5 13.5964 13.0964 8 20 8H40C46.9036 8 52.5 13.5964 52.5 20.5C52.5 27.4036 46.9036 33 40 33H35.1961C34.2015 33 33.2477 32.6049 32.5444 31.9017L30.4733 29.8306C29.3012 28.6585 27.7115 28 26.0539 28H20C15.8579 28 12.5 24.6421 12.5 20.5C12.5 16.3579 15.8579 13 20 13H40C44.1421 13 47.5 16.3579 47.5 20.5C47.5 24.5916 44.2235 27.918 40.1512 27.9985L40.1504 28H38.3211C37.3265 28 36.3727 27.6049 35.6694 26.9017L33.5983 24.8306C32.6366 23.8688 31.3937 23.2529 30.0628 23.0628L30 23H20C18.6193 23 17.5 21.8807 17.5 20.5C17.5 19.1193 18.6193 18 20 18H40C41.3807 18 42.5 19.1193 42.5 20.5C42.5 21.8807 41.3807 23 40 23H35L36.7678 24.7678C37.2366 25.2366 37.8725 25.5 38.5355 25.5H40C42.7614 25.5 45 23.2614 45 20.5C45 17.7386 42.7614 15.5 40 15.5H20C17.2386 15.5 15 17.7386 15 20.5C15 23.2614 17.2386 25.5 20 25.5H29.1789C30.1735 25.5 31.1273 25.8951 31.8306 26.5983L33.9017 28.6694C35.0738 29.8415 36.6635 30.5 38.3211 30.5H40.625V30.4808C45.8567 30.1582 50 25.8129 50 20.5C50 14.9772 45.5228 10.5 40 10.5H20C14.4772 10.5 10 14.9772 10 20.5C10 26.0229 14.4772 30.5 20 30.5H26.0539C27.0485 30.5 28.0023 30.8951 28.7056 31.5983L30.7767 33.6694C31.9488 34.8415 33.5385 35.5 35.1961 35.5H40C48.2843 35.5 55 28.7843 55 20.5C55 12.2157 48.2843 5.5 40 5.5H20C11.7157 5.5 5 12.2157 5 20.5C5 28.7843 11.7157 35.5 20 35.5H23.3762C24.3708 35.5 25.3246 35.8951 26.0279 36.5983L28.099 38.6694C29.2711 39.8415 30.8608 40.5 32.5184 40.5H40C51.0457 40.5 60 31.5457 60 20.5C60 9.4543 51.0457 0.499999 40 0.5L20 0.500004C8.9543 0.500005 -9.65645e-07 9.45431 0 20.5C9.65645e-07 31.5457 8.95431 40.5 20 40.5Z" fill="#1B1B1B"/>
</svg>
