<svg width="54" height="54" viewBox="0 0 54 54" fill="none" xmlns="http://www.w3.org/2000/svg">
    <path
        d="M35.451 23.6154V13.4615C35.451 11.2174 34.5607 9.06517 32.976 7.47833C31.3913 5.89148 29.2421 5 27.001 5C24.7599 5 22.6106 5.89148 21.026 7.47833C19.4413 9.06517 18.551 11.2174 18.551 13.4615V23.6154M44.1398 19.1184L46.9857 46.1953C47.1435 47.6958 45.9718 49 44.4643 49H9.53771C9.18215 49.0004 8.83049 48.9259 8.50557 48.7813C8.18065 48.6367 7.88974 48.4253 7.65173 48.1608C7.41372 47.8963 7.23394 47.5846 7.12407 47.246C7.0142 46.9073 6.97669 46.5494 7.01398 46.1953L9.86219 19.1184C9.92789 18.4946 10.2219 17.9173 10.6875 17.4977C11.1531 17.0781 11.7573 16.846 12.3837 16.8462H41.6183C42.9162 16.8462 44.0046 17.8277 44.1398 19.1184ZM19.396 23.6154C19.396 23.8398 19.307 24.055 19.1485 24.2137C18.9901 24.3724 18.7751 24.4615 18.551 24.4615C18.3269 24.4615 18.112 24.3724 17.9535 24.2137C17.795 24.055 17.706 23.8398 17.706 23.6154C17.706 23.391 17.795 23.1757 17.9535 23.0171C18.112 22.8584 18.3269 22.7692 18.551 22.7692C18.7751 22.7692 18.9901 22.8584 19.1485 23.0171C19.307 23.1757 19.396 23.391 19.396 23.6154ZM36.296 23.6154C36.296 23.8398 36.2069 24.055 36.0485 24.2137C35.89 24.3724 35.6751 24.4615 35.451 24.4615C35.2269 24.4615 35.0119 24.3724 34.8535 24.2137C34.695 24.055 34.606 23.8398 34.606 23.6154C34.606 23.391 34.695 23.1757 34.8535 23.0171C35.0119 22.8584 35.2269 22.7692 35.451 22.7692C35.6751 22.7692 35.89 22.8584 36.0485 23.0171C36.2069 23.1757 36.296 23.391 36.296 23.6154Z"
        stroke="#1B1B1B" stroke-width="2" stroke-linecap="round" stroke-linejoin="round" />
</svg>